<svg width="416" height="96" viewBox="0 0 416 96" fill="none" xmlns="http://www.w3.org/2000/svg">
<g clip-path="url(#clip0_1_73)">
<path d="M0 0H416V64C416 81.6731 401.673 96 384 96H32C14.3269 96 0 81.6731 0 64V0Z" fill="#D9D9D9"/>
<g style="mix-blend-mode:darken">
<rect width="672" height="96" fill="url(#paint0_linear_1_73)"/>
</g>
<path d="M57.2925 61.4561V75.2715H51.9912V66H26.9995V32.4482H32.5073V61.2954H47.3096V32.4482H52.7715V61.4561H57.2925ZM67.3442 40.5952V53.5615C67.3442 53.9746 67.3289 54.5024 67.2983 55.145C67.283 55.7723 67.2524 56.4302 67.2065 57.1187C67.1606 57.7918 67.1147 58.4115 67.0688 58.9775C67.0229 59.5436 66.9847 59.9644 66.9541 60.2397L79.7368 40.5952H86.3003V66H81.1367V53.1714C81.1367 52.4982 81.152 51.7179 81.1826 50.8306C81.2285 49.9432 81.2744 49.0864 81.3203 48.2603C81.3815 47.4341 81.4198 46.8068 81.4351 46.3784L68.6982 66H62.1577V40.5952H67.3442ZM110.741 30.291V40.3428C113.465 40.5723 115.798 41.2454 117.741 42.3623C119.684 43.4639 121.175 44.9403 122.216 46.7915C123.256 48.6427 123.776 50.8076 123.776 53.2861C123.776 55.734 123.271 57.8913 122.262 59.7578C121.267 61.6243 119.799 63.116 117.855 64.2329C115.928 65.3498 113.556 66.0306 110.741 66.2754V77.291H105.624V66.2754C102.9 66.0459 100.567 65.3727 98.624 64.2559C96.681 63.139 95.1816 61.6473 94.126 59.7808C93.0703 57.9142 92.5425 55.7493 92.5425 53.2861C92.5425 50.7923 93.0397 48.6121 94.0342 46.7456C95.0286 44.8791 96.4974 43.395 98.4404 42.2935C100.383 41.1919 102.801 40.5417 105.692 40.3428V30.291H110.741ZM105.692 44.5425C104.04 44.7261 102.648 45.2004 101.516 45.9653C100.399 46.715 99.5573 47.7095 98.9912 48.9487C98.4251 50.188 98.1421 51.6338 98.1421 53.2861C98.1421 54.9538 98.4175 56.4149 98.9683 57.6694C99.5343 58.9087 100.376 59.9032 101.493 60.6528C102.625 61.4025 104.025 61.8691 105.692 62.0527V44.5425ZM110.741 44.6113V62.0527C112.394 61.8691 113.771 61.4025 114.872 60.6528C115.989 59.8879 116.823 58.8857 117.374 57.6465C117.94 56.3919 118.223 54.9385 118.223 53.2861C118.223 50.8076 117.58 48.811 116.295 47.2964C115.025 45.7817 113.174 44.8867 110.741 44.6113ZM143.031 40.1133C146.045 40.1133 148.462 41.2148 150.283 43.418C152.119 45.6211 153.037 48.8952 153.037 53.2402C153.037 56.1165 152.608 58.5415 151.751 60.5151C150.91 62.4735 149.724 63.9575 148.194 64.9673C146.68 65.9618 144.913 66.459 142.893 66.459C141.608 66.459 140.491 66.2907 139.542 65.9541C138.594 65.6175 137.783 65.1815 137.11 64.646C136.437 64.0952 135.871 63.4985 135.412 62.856H135.09C135.167 63.4679 135.236 64.1488 135.297 64.8984C135.373 65.6328 135.412 66.306 135.412 66.918V77.2681H129.996V40.5952H134.402L135.159 44.1064H135.412C135.886 43.3874 136.46 42.7218 137.133 42.1099C137.821 41.4979 138.647 41.016 139.611 40.6641C140.59 40.2969 141.73 40.1133 143.031 40.1133ZM141.585 44.5195C140.101 44.5195 138.908 44.8179 138.005 45.4146C137.118 45.9959 136.467 46.8757 136.054 48.0537C135.656 49.2318 135.442 50.7082 135.412 52.4829V53.2402C135.412 55.1221 135.603 56.7209 135.985 58.0366C136.383 59.3371 137.033 60.3315 137.936 61.02C138.854 61.6932 140.093 62.0298 141.654 62.0298C142.97 62.0298 144.056 61.6702 144.913 60.9512C145.785 60.2321 146.435 59.207 146.863 57.876C147.292 56.5449 147.506 54.9767 147.506 53.1714C147.506 50.4328 147.016 48.3062 146.037 46.7915C145.073 45.2769 143.589 44.5195 141.585 44.5195ZM181.769 53.2402C181.769 55.3516 181.494 57.2257 180.943 58.8628C180.392 60.4998 179.589 61.8844 178.533 63.0166C177.478 64.1335 176.208 64.9902 174.724 65.5869C173.24 66.1683 171.564 66.459 169.698 66.459C167.954 66.459 166.355 66.1683 164.901 65.5869C163.448 64.9902 162.186 64.1335 161.115 63.0166C160.059 61.8844 159.241 60.4998 158.659 58.8628C158.078 57.2257 157.787 55.3516 157.787 53.2402C157.787 50.4404 158.269 48.069 159.233 46.126C160.212 44.1676 161.604 42.6759 163.41 41.6509C165.215 40.6258 167.365 40.1133 169.858 40.1133C172.199 40.1133 174.265 40.6258 176.055 41.6509C177.845 42.6759 179.245 44.1676 180.254 46.126C181.264 48.0843 181.769 50.4557 181.769 53.2402ZM163.341 53.2402C163.341 55.0915 163.563 56.675 164.006 57.9907C164.465 59.3065 165.169 60.3162 166.118 61.02C167.066 61.7085 168.29 62.0527 169.79 62.0527C171.289 62.0527 172.513 61.7085 173.461 61.02C174.41 60.3162 175.106 59.3065 175.55 57.9907C175.993 56.675 176.215 55.0915 176.215 53.2402C176.215 51.389 175.993 49.8208 175.55 48.5356C175.106 47.2352 174.41 46.2484 173.461 45.5752C172.513 44.8867 171.281 44.5425 169.767 44.5425C167.533 44.5425 165.903 45.2922 164.878 46.7915C163.853 48.2909 163.341 50.4404 163.341 53.2402ZM209.331 47.1128C209.331 48.5815 208.88 49.7826 207.977 50.7158C207.09 51.6338 205.866 52.2381 204.305 52.5288V52.7124C205.973 52.9266 207.365 53.5156 208.482 54.4795C209.599 55.4434 210.157 56.7821 210.157 58.4956C210.157 59.9491 209.79 61.2419 209.056 62.374C208.337 63.4909 207.189 64.3783 205.613 65.0361C204.053 65.6787 202.01 66 199.486 66H187.965V40.5952H199.44C201.337 40.5952 203.028 40.8018 204.512 41.2148C206.011 41.6279 207.189 42.3088 208.046 43.2573C208.903 44.2059 209.331 45.491 209.331 47.1128ZM204.535 58.312C204.535 57.0575 204.053 56.1548 203.089 55.604C202.14 55.0532 200.748 54.7778 198.912 54.7778H193.381V62.0298H199.027C200.74 62.0298 202.087 61.7467 203.066 61.1807C204.045 60.5993 204.535 59.6431 204.535 58.312ZM203.846 47.5947C203.846 46.6003 203.471 45.8659 202.722 45.3916C201.972 44.902 200.794 44.6572 199.188 44.6572H193.381V50.8076H198.453C200.228 50.8076 201.567 50.5552 202.469 50.0503C203.387 49.5301 203.846 48.7116 203.846 47.5947ZM238.729 53.2402C238.729 55.3516 238.454 57.2257 237.903 58.8628C237.352 60.4998 236.549 61.8844 235.493 63.0166C234.438 64.1335 233.168 64.9902 231.684 65.5869C230.2 66.1683 228.524 66.459 226.658 66.459C224.914 66.459 223.315 66.1683 221.861 65.5869C220.408 64.9902 219.146 64.1335 218.075 63.0166C217.019 61.8844 216.201 60.4998 215.619 58.8628C215.038 57.2257 214.747 55.3516 214.747 53.2402C214.747 50.4404 215.229 48.069 216.193 46.126C217.172 44.1676 218.564 42.6759 220.37 41.6509C222.175 40.6258 224.325 40.1133 226.818 40.1133C229.159 40.1133 231.225 40.6258 233.015 41.6509C234.805 42.6759 236.205 44.1676 237.214 46.126C238.224 48.0843 238.729 50.4557 238.729 53.2402ZM220.301 53.2402C220.301 55.0915 220.523 56.675 220.966 57.9907C221.425 59.3065 222.129 60.3162 223.078 61.02C224.026 61.7085 225.25 62.0527 226.75 62.0527C228.249 62.0527 229.473 61.7085 230.421 61.02C231.37 60.3162 232.066 59.3065 232.51 57.9907C232.953 56.675 233.175 55.0915 233.175 53.2402C233.175 51.389 232.953 49.8208 232.51 48.5356C232.066 47.2352 231.37 46.2484 230.421 45.5752C229.473 44.8867 228.241 44.5425 226.727 44.5425C224.493 44.5425 222.863 45.2922 221.838 46.7915C220.813 48.2909 220.301 50.4404 220.301 53.2402ZM250.112 40.5952V53.5615C250.112 53.9746 250.097 54.5024 250.066 55.145C250.051 55.7723 250.02 56.4302 249.974 57.1187C249.928 57.7918 249.882 58.4115 249.836 58.9775C249.791 59.5436 249.752 59.9644 249.722 60.2397L262.504 40.5952H269.068V66H263.904V53.1714C263.904 52.4982 263.92 51.7179 263.95 50.8306C263.996 49.9432 264.042 49.0864 264.088 48.2603C264.149 47.4341 264.187 46.8068 264.203 46.3784L251.466 66H244.925V40.5952H250.112ZM267.163 29.9009C267.01 31.4767 266.582 32.8384 265.878 33.9858C265.189 35.118 264.141 35.9901 262.734 36.6021C261.326 37.214 259.475 37.52 257.18 37.52C254.809 37.52 252.935 37.2293 251.558 36.6479C250.181 36.0513 249.186 35.1868 248.574 34.0547C247.962 32.9072 247.595 31.5226 247.473 29.9009H252.384C252.537 31.5991 252.98 32.7466 253.715 33.3433C254.449 33.9246 255.635 34.2153 257.272 34.2153C258.68 34.2153 259.804 33.9017 260.646 33.2744C261.502 32.6471 262.015 31.5226 262.183 29.9009H267.163ZM299.269 66.459C296.867 66.459 294.786 65.9924 293.027 65.0591C291.267 64.1258 289.913 62.6953 288.965 60.7676C288.016 58.8398 287.542 56.3919 287.542 53.4238C287.542 50.3333 288.062 47.8089 289.103 45.8506C290.143 43.8923 291.581 42.4465 293.417 41.5132C295.268 40.5799 297.387 40.1133 299.774 40.1133C301.289 40.1133 302.658 40.2663 303.882 40.5723C305.121 40.863 306.169 41.2225 307.026 41.6509L305.419 45.9653C304.486 45.5828 303.53 45.2616 302.551 45.0015C301.572 44.7414 300.631 44.6113 299.728 44.6113C298.244 44.6113 297.005 44.9403 296.01 45.5981C295.031 46.256 294.297 47.2352 293.807 48.5356C293.333 49.8361 293.096 51.4502 293.096 53.3779C293.096 55.2445 293.34 56.8203 293.83 58.1055C294.32 59.3753 295.046 60.3392 296.01 60.9971C296.974 61.6396 298.16 61.9609 299.567 61.9609C300.96 61.9609 302.207 61.7926 303.308 61.4561C304.41 61.1195 305.45 60.6834 306.429 60.1479V64.8296C305.465 65.3804 304.433 65.7858 303.331 66.0459C302.229 66.3213 300.875 66.459 299.269 66.459ZM333.303 66H327.864V44.8179H320.818C320.512 48.6733 320.13 51.9704 319.671 54.709C319.212 57.4476 318.638 59.6813 317.95 61.4102C317.261 63.1237 316.412 64.3783 315.402 65.1738C314.393 65.9694 313.176 66.3672 311.753 66.3672C311.126 66.3672 310.56 66.3213 310.055 66.2295C309.55 66.153 309.099 66.0306 308.701 65.8623V61.6167C308.961 61.7085 309.244 61.785 309.55 61.8462C309.856 61.9074 310.17 61.938 310.491 61.938C311.057 61.938 311.577 61.7085 312.052 61.2495C312.541 60.7752 312.993 60.0332 313.406 59.0234C313.819 58.0137 314.194 56.6826 314.53 55.0303C314.867 53.3626 315.173 51.3431 315.448 48.9717C315.724 46.585 315.968 43.7928 316.183 40.5952H333.303V66ZM351.157 40.1133C353.422 40.1133 355.365 40.5799 356.986 41.5132C358.608 42.4465 359.855 43.7699 360.727 45.4834C361.599 47.1969 362.035 49.2471 362.035 51.6338V54.5254H345.076C345.137 56.9886 345.795 58.8857 347.049 60.2168C348.319 61.5479 350.094 62.2134 352.374 62.2134C353.995 62.2134 355.449 62.0604 356.734 61.7544C358.034 61.4331 359.373 60.9665 360.75 60.3545V64.7378C359.48 65.3345 358.187 65.7705 356.872 66.0459C355.556 66.3213 353.98 66.459 352.144 66.459C349.65 66.459 347.455 65.9771 345.558 65.0132C343.676 64.034 342.199 62.5806 341.128 60.6528C340.073 58.7251 339.545 56.3307 339.545 53.4697C339.545 50.624 340.027 48.2067 340.991 46.2178C341.955 44.2288 343.309 42.7142 345.053 41.6738C346.797 40.6335 348.832 40.1133 351.157 40.1133ZM351.157 44.1753C349.459 44.1753 348.082 44.7261 347.026 45.8276C345.986 46.9292 345.374 48.5433 345.19 50.6699H356.757C356.742 49.4001 356.527 48.2756 356.114 47.2964C355.716 46.3172 355.104 45.5522 354.278 45.0015C353.467 44.4507 352.427 44.1753 351.157 44.1753ZM388.863 40.5952V61.8232H392.535V74.9502H387.555V66H370.021V74.9502H365.042V61.8232H367.107C368.392 59.9567 369.463 57.876 370.32 55.5811C371.192 53.2861 371.865 50.8688 372.339 48.3291C372.829 45.7741 373.135 43.1961 373.257 40.5952H388.863ZM383.516 44.7261H377.893C377.709 46.7915 377.396 48.8493 376.952 50.8994C376.508 52.9342 375.935 54.8849 375.231 56.7515C374.542 58.6027 373.716 60.2933 372.752 61.8232H383.516V44.7261Z" fill="white"/>
<mask id="path-5-inside-1_1_73" fill="white">
<path d="M0 0H416V64C416 81.6731 401.673 96 384 96H32C14.3269 96 0 81.6731 0 64V0Z"/>
</mask>
<path d="M0 0H416H0ZM418 64C418 82.7777 402.778 98 384 98H32C13.2223 98 -2 82.7777 -2 64H2C2 80.5685 15.4315 94 32 94H384C400.569 94 414 80.5685 414 64H418ZM32 98C13.2223 98 -2 82.7777 -2 64V0H2V64C2 80.5685 15.4315 94 32 94V98ZM418 0V64C418 82.7777 402.778 98 384 98V94C400.569 94 414 80.5685 414 64V0H418Z" fill="white" fill-opacity="0.5" mask="url(#path-5-inside-1_1_73)"/>
</g>
<defs>
<linearGradient id="paint0_linear_1_73" x1="0" y1="48" x2="672" y2="48" gradientUnits="userSpaceOnUse">
<stop stop-color="#7CA9CA"/>
<stop offset="0.4" stop-color="#6688CA"/>
<stop offset="0.8" stop-color="#434A8A"/>
<stop offset="1" stop-color="#212C67"/>
</linearGradient>
<clipPath id="clip0_1_73">
<path d="M0 0H416V64C416 81.6731 401.673 96 384 96H32C14.3269 96 0 81.6731 0 64V0Z" fill="white"/>
</clipPath>
</defs>
</svg>
